<svg width="354" height="455" viewBox="0 0 354 455" fill="none" xmlns="http://www.w3.org/2000/svg">
<g clip-path="url(#clip0_81_2)">
<path fill-rule="evenodd" clip-rule="evenodd" d="M94.6659 168.134L94.3935 168.352C93.2238 169.316 91.8942 170.781 90.722 173.047C89.4574 175.476 89.4974 177.587 90.2497 179.292C90.1202 179.456 90.0119 179.635 89.9273 179.826C87.2955 185.585 84.2714 193.478 81.5846 203.659C80.6149 207.332 79.7627 211.065 79.0279 214.857C79.0182 214.893 79.0107 214.929 79.0054 214.965C77.3759 223.309 76.2562 231.89 75.4464 240.559C72.3773 242.061 70.7578 244.941 70.053 247.938C69.3482 250.936 69.838 254.326 71.3026 257.203C71.0902 258.621 70.8203 260.601 70.6128 262.805C70.5079 263.899 70.4179 265.059 70.3629 266.213C65.8642 268.184 58.8662 270.868 52.618 271.554C48.6916 271.985 45.0477 271.764 42.9483 269.413C40.2665 266.408 39.0144 262.282 38.4071 258.44C37.8838 254.96 37.7597 251.432 38.0372 247.923C39.6337 247.402 41.1213 246.591 42.4259 245.532C42.9083 245.151 43.6206 244.673 44.4553 244.147C45.47 243.509 46.6572 242.815 47.8543 242.162C49.9737 241.005 51.6033 239.054 52.603 236.928C53.8076 234.361 54.0251 231.559 53.3528 229.571C52.65 227.528 51.4987 225.668 49.9837 224.13C47.9418 222.037 45.535 220.792 43.8405 219.956C43.6581 217.787 43.748 212.584 47.5894 206.704C51.3384 200.945 55.4672 196.61 57.3791 193.155C59.2911 189.699 59.341 186.88 57.1292 184.391C55.2047 182.21 52.2056 181.135 48.7091 181.461C41.9835 182.095 33.0086 188.259 29.2147 200.94C28.5344 203.369 28.1155 205.864 27.9651 208.382C26.3156 207.606 24.1911 207.486 21.7918 207.969C19.0426 208.522 17.0432 209.594 15.6211 211.307C15.5436 211.404 15.4662 211.502 15.3912 211.605C14.3415 210.906 12.9644 210.603 11.1424 210.981C8.50315 211.537 6.57872 212.576 5.22411 214.219C3.40464 216.422 2.55487 219.978 3.05973 225.87C3.4971 230.951 5.30908 233.973 7.341 235.588C7.46846 235.691 7.59091 235.786 7.72837 235.879C8.17824 238.779 9.95024 244.894 16.9532 247.147C17.9126 247.46 18.891 247.711 19.8824 247.898C19.7774 251.825 19.9449 259.785 22.3367 267.788C24.661 275.568 29.0848 283.333 37.125 287.785C40.9464 289.901 46.6772 290.557 52.7779 290.197C59.4544 289.742 66.0469 288.445 72.3998 286.338C72.0149 303.115 75.3989 314.105 78.7955 321.725L78.8904 321.936C83.0118 331.083 89.8723 344.419 103.501 355.239C105.75 365.428 110.126 376.942 115.185 387.604C114.638 387.559 114.148 387.532 113.74 387.517C110.424 387.462 107.114 387.816 103.883 388.568C100.632 389.288 97.4852 390.415 94.5159 391.924C89.5324 394.543 85.831 397.871 84.6088 400.438C83.749 402.248 83.834 403.891 84.6088 405.225C85.1986 406.247 86.2908 407.201 88.1528 407.747C90.3821 408.395 93.5612 408.819 96.9428 409.041C101.222 409.31 105.514 409.31 109.794 409.041C114.747 408.686 119.672 408.017 124.54 407.038C130.016 405.924 133.83 404.582 134.787 403.903C135.744 403.225 136.536 401.967 136.849 400.385C137.239 398.359 136.911 395.677 136.384 394.085C136.017 392.991 135.539 391.656 134.999 390.204C132.947 384.67 130.001 377.353 129.341 375.259C128.439 372.362 127.706 369.693 127.092 367.229C130.518 368.296 134.067 369.215 137.654 369.983C141.507 376.341 146.314 383.107 151.435 388.836C159.512 397.871 168.317 406.63 181.321 418.076C181.101 418.304 180.886 418.537 180.666 418.767C179.223 420.391 178.022 422.215 177.1 424.183C176.292 425.88 175.76 427.695 175.523 429.56C174.623 429.569 173.726 429.653 172.841 429.81C171.802 430.012 170.787 430.319 169.812 430.729C166.995 431.863 164.813 433.561 163.276 434.931C161.329 436.664 160.122 438.131 159.495 439.233C159.089 439.909 158.834 440.665 158.745 441.449C158.685 441.956 158.74 442.47 158.906 442.954C159.071 443.437 159.342 443.877 159.7 444.241C160.303 444.85 161.098 445.231 161.949 445.323C166.663 445.969 170.584 446.174 174.078 445.919C176.887 445.73 179.659 445.178 182.326 444.276C185.522 443.194 188.764 441.471 191.748 439.548C196.034 436.73 200.052 433.521 203.75 429.963C204.909 428.897 205.678 427.473 205.936 425.919C206.264 423.915 205.567 421.912 205.034 420.33C204.312 418.179 202.99 416.073 201.245 413.949C198.441 410.539 194.482 407.033 190.641 402.954C187.677 399.809 182.713 395.374 178.144 390.754C176.395 388.987 174.705 387.194 173.223 385.433C170.929 382.714 168.805 379.997 166.878 377.395C165.818 375.965 164.818 374.571 163.879 373.226C164.732 373.256 165.573 373.277 166.403 373.289C182.376 373.522 204.392 366.42 212.307 361.352C213.307 360.711 215.819 358.287 216.686 356.216C217.401 354.511 217.201 352.946 216.266 351.806C215.719 351.133 214.819 350.497 213.304 350.256C211.51 349.971 208.193 350.286 202.572 351.974C189.504 355.898 178.219 356.301 165.271 348.158C161.709 345.922 159.51 343.856 158.398 341.412C157.285 338.968 157.3 336.276 157.813 332.846C158.608 327.542 160.654 320.771 162.829 311.401C166.578 295.303 173.576 284.688 180.541 274.341C182.523 274.561 185.052 274.341 188.262 273.39C193.373 271.887 202.382 269.333 210.005 268.925C212.365 268.8 214.579 268.877 216.468 269.3C217.968 269.636 219.27 270.169 220.12 271.118C221.989 273.212 223.191 276.187 224.031 279.427C225.398 284.728 225.736 290.743 225.803 295.383C225.806 295.463 225.783 295.543 225.739 295.61C225.694 295.677 225.629 295.728 225.553 295.756C225.205 295.907 224.841 296.021 224.469 296.096C223.171 296.392 221.604 296.545 219.99 296.833C217.288 297.313 213.527 298.383 211.8 300.446C210.353 302.181 209.233 303.821 209.205 307.708C209.205 309.09 210.223 311.626 211.627 313.482C211.059 314.179 210.565 314.934 210.155 315.736C209.502 316.989 209.163 318.383 209.168 319.797C209.22 322.346 211.31 325.581 214.546 327.392C217.046 328.792 220.12 329.363 223.032 328.366C223.341 329.005 223.765 329.582 224.281 330.069C225.58 331.275 227.251 332.001 229.017 332.127C230.572 332.232 232.13 331.985 233.576 331.403L234.103 331.171C235.103 332.062 236.93 333.424 238.979 333.797C242.096 334.351 246.435 332.528 248.387 329.22C250.636 325.404 252.69 318.811 251.336 311.924C251.031 310.372 250.269 308.862 249.304 307.362C248.212 305.664 246.805 303.967 246.005 302.058C244.945 299.554 243.978 297.176 243.863 295.137C243.443 287.783 242.114 277.048 238.275 267.971C235.573 261.581 231.617 256.019 226.011 252.766C221.454 250.124 214.764 249.261 207.808 249.539C203.616 249.733 199.445 250.242 195.329 251.064C202.717 239.678 210.23 230.981 219.165 220.464C225.358 213.172 227.868 208.835 228.887 206.379C234.076 208.297 244.935 210.661 255.305 202.533C264.085 195.646 265.084 187.318 263.035 179.613C263.015 179.489 262.987 179.366 262.95 179.245C262.95 179.245 262.91 179.112 262.828 178.869C261.493 174.314 259.141 170 256.757 166.364C250.656 157.047 231.292 144.742 218.795 139.794C216.356 138.827 213.372 137.83 210.075 136.824L210.46 136.153C213.512 137.64 216.926 138.386 220.86 138.189C223.823 138.051 226.724 137.286 229.371 135.946C232.018 134.605 234.353 132.718 236.22 130.408C240.027 125.686 241.614 119.446 239.997 113.443C239.133 110.195 237.133 107.365 234.361 105.471C230.019 102.413 224.474 101.782 222.244 101.662C221.409 98.7898 219.905 95.7374 217.791 92.705C214.716 88.5683 211.262 86.3898 207.638 85.4958C204.794 84.7947 201.833 84.9024 198.841 85.4958C196.153 81.8052 192.965 78.5074 189.369 75.6975C185.135 72.4622 179.834 69.8004 173.991 69.7053C166.075 69.5801 161.664 74.1249 159.507 79.6639C157.488 84.8473 157.583 90.9321 158.54 94.4378C160.025 99.859 164.746 105.098 166.628 107.026C165.97 108.223 165.263 109.49 164.471 110.747C163.104 113.04 161.889 115.421 160.832 117.873C159.857 120.102 159.097 122.118 158.61 123.482C155.503 123.457 152.222 123.615 148.95 123.83C148.171 123.88 147.393 123.935 146.618 123.993C145.346 123.958 144.072 124.048 142.817 124.263C137.506 124.627 132.63 124.837 129.243 124.048C118.944 121.652 110.749 125.658 103.143 128.954C95.1757 132.399 87.0231 139.33 87.6904 153.108C87.9978 159.48 91.9392 165.039 94.6734 168.167L94.6659 168.134ZM144.539 371.295C147.758 376.257 151.338 380.974 155.248 385.408C163.359 394.478 172.219 403.267 185.437 414.863C185.564 414.973 185.678 415.096 185.78 415.229C186.058 415.181 186.34 415.152 186.622 415.141C187.769 415.062 188.919 415.253 189.979 415.7C190.939 416.094 191.84 416.623 192.653 417.27C193.043 417.575 193.185 417.828 193.11 418.114C193.013 418.477 192.53 418.557 192.265 418.572C191.441 418.619 190.433 418.777 189.621 418.887C189.231 418.94 188.909 419.033 188.571 419.078C187.918 419.177 187.285 419.383 186.697 419.686C185.635 420.187 185.067 421.083 184.368 421.967C183.289 423.271 182.396 424.719 181.716 426.269C180.986 427.93 180.631 429.414 180.586 430.436C180.684 430.481 180.781 430.529 180.876 430.579C182.32 431.313 183.585 432.358 184.58 433.639C184.715 433.758 184.796 433.926 184.808 434.106C184.819 434.286 184.759 434.462 184.64 434.598C184.521 434.733 184.353 434.814 184.174 434.826C183.994 434.837 183.818 434.777 183.683 434.658C182.708 434.092 181.646 433.822 180.559 433.596C179.586 433.399 178.586 433.382 177.607 433.549C176.972 433.641 176.39 433.822 175.8 433.962C174.431 434.295 173.102 434.777 171.836 435.397C169.987 436.278 168.277 437.427 166.76 438.805C166.203 439.305 165.571 439.844 165.038 440.322C167.304 440.566 169.583 440.665 171.861 440.62C174.82 440.576 177.754 440.076 180.561 439.138C184.075 437.938 187.627 435.827 190.746 433.641C194.003 431.343 197.085 428.806 199.968 426.051C200.158 425.89 200.311 425.69 200.419 425.466C200.527 425.241 200.586 424.996 200.593 424.747C200.593 423.763 200.148 422.836 199.888 422.05C199.363 420.467 198.346 418.942 197.069 417.38C194.34 414.042 190.478 410.619 186.742 406.613C183.808 403.48 178.894 399.065 174.38 394.458C172.541 392.58 170.767 390.672 169.207 388.804C166.853 385.982 164.676 383.167 162.709 380.473C160.742 377.778 158.96 375.199 157.408 372.85C153.234 372.52 148.898 372.004 144.539 371.285V371.295ZM146.578 345.161C132.17 337.11 123.425 333.432 117.757 332.252C114.86 331.649 112.943 331.729 111.509 332.302C110.074 332.876 109.179 333.877 108.215 334.854C107.292 335.78 106.98 337.22 106.852 339.058C106.682 341.5 106.955 344.532 107.442 348.14C107.659 349.758 107.947 351.427 108.307 353.149C108.325 353.215 108.339 353.283 108.349 353.351C110.644 364.221 115.56 376.767 121.126 388.073C121.188 388.198 121.401 388.611 121.626 389.057C122.686 389.464 123.703 389.976 124.662 390.584C125.964 391.445 126.964 392.322 127.591 393.324C127.746 393.574 127.866 394.017 127.606 394.288C127.346 394.558 126.909 394.433 126.649 394.288C125.649 393.787 124.377 393.536 122.868 393.306C121.958 393.166 121.033 393.093 120.079 392.995C119.444 392.93 118.829 392.883 118.212 392.808C116.382 392.587 114.713 392.392 113.658 392.397C110.75 392.387 107.852 392.732 105.028 393.426C102.205 394.077 99.4742 395.077 96.8978 396.404C95.0937 397.347 93.3897 398.471 91.8117 399.759C90.9582 400.435 90.2014 401.225 89.5624 402.108C89.4555 402.281 89.3619 402.461 89.2824 402.649C89.3814 402.693 89.4833 402.731 89.5874 402.761C91.5368 403.322 94.316 403.65 97.2726 403.836C101.315 404.083 105.37 404.078 109.412 403.818C113.351 403.524 117.272 403.022 121.158 402.316C126.442 401.359 130.378 400.337 131.583 399.686C131.667 399.341 131.725 398.989 131.755 398.635C131.79 397.661 131.663 396.688 131.38 395.755L124.312 376.819C120.813 365.551 119.834 357.726 118.119 351.796C117.621 349.924 116.897 348.12 115.965 346.423C115.671 345.912 115.557 345.317 115.642 344.734C115.727 344.151 116.005 343.613 116.432 343.208C116.859 342.803 117.41 342.553 117.996 342.5C118.582 342.447 119.168 342.593 119.661 342.915C123.078 345.138 128.979 348.561 135.907 352.242C141.155 355.024 146.966 357.954 152.754 360.621C154.313 361.323 156.049 361.535 157.73 361.227C159.39 360.929 160.909 360.17 161.852 358.973C162.726 357.864 163.171 356.747 162.374 355.495C161.624 354.3 160.177 353.091 157.973 351.739C153.921 349.33 150.225 347.191 146.818 345.291C146.736 345.251 146.658 345.206 146.568 345.158L146.578 345.161ZM165.141 363.042C163.356 364.772 161.091 365.919 158.643 366.332C155.921 366.83 153.114 366.486 150.592 365.346C144.709 362.649 138.788 359.687 133.465 356.867C129.763 354.909 126.352 353.018 123.438 351.336C124.202 354.195 124.847 357.483 125.704 361.352C136.226 365 148.245 367.059 159.005 367.812H159.075C161.629 367.993 164.113 368.095 166.488 368.13C171.109 368.198 176.275 367.629 181.423 366.628C182.173 366.485 182.231 366.072 181.461 365.999C176.965 365.534 172.498 364.816 168.082 363.851C167.089 363.622 166.108 363.342 165.143 363.015L165.141 363.042ZM167.85 355.472C168.059 356.47 168.043 357.502 167.802 358.492C168.277 358.632 168.757 358.758 169.234 358.868C173.311 359.809 182.253 361.314 186.41 361.121C188.559 361.019 190.698 360.768 192.813 360.37C197.016 359.592 196.197 358.975 192.598 359.441C184.285 360.518 176.322 359.581 167.855 355.462L167.85 355.472ZM75.8763 262.242C75.8413 262.58 75.8088 262.925 75.7763 263.276C75.5409 265.718 75.4499 268.172 75.5039 270.625C75.5586 272.715 75.8096 274.795 76.2537 276.838C76.7261 278.934 77.3934 280.777 78.3456 282.024C78.3806 282.069 78.5955 282.312 78.748 282.337C78.9004 282.362 78.9979 282.176 78.9979 282.086C79.2853 279.68 79.3203 278.065 79.4978 276.973C79.5948 276.23 79.8314 275.512 80.1951 274.857C80.6949 274.016 81.9221 272.801 83.2942 272.698C84.2564 272.628 85.576 272.829 86.7682 274.582C87.1223 275.144 87.4476 275.724 87.7429 276.319C87.9253 276.67 88.2577 277.243 88.2577 277.243C88.2577 277.243 88.5077 277.804 88.8476 277.654C89.22 277.489 89.3724 276.379 89.4424 276.036C89.6648 275.165 89.6323 273.572 89.9697 272.298C90.1872 271.476 90.4296 270.795 90.932 270.387C91.0436 270.246 91.2064 270.155 91.3849 270.134C91.5633 270.113 91.7428 270.163 91.8842 270.275C92.0257 270.386 92.117 270.55 92.1381 270.729C92.1592 270.909 92.1083 271.089 91.9967 271.231C91.8442 271.552 91.9967 271.942 92.0717 272.4C92.2056 272.976 92.3725 273.544 92.5715 274.101C92.7833 274.8 92.9305 275.518 93.0114 276.244C93.2163 278.974 92.4415 280.423 91.7217 281.237C90.722 282.352 89.3374 282.504 87.8953 282.221C87.1125 282.029 86.3569 281.738 85.646 281.357C85.1435 281.08 84.7043 280.7 84.3564 280.243L84.1564 282.672C83.7215 286.679 81.6096 287.705 79.7802 287.86C79.003 287.912 78.2237 287.798 77.4933 287.527C77.4833 288.432 77.4833 289.319 77.4933 290.187C80.515 287.913 85.0237 285.947 90.917 287.272C102.211 289.814 105.643 297.762 106.238 306.533C106.662 312.811 103.341 318.598 97.4051 322.789C94.1111 325.116 90.2972 326.45 86.5032 325.965C89.8948 332.548 94.7509 340.238 102.124 347.249C101.624 343.085 101.471 339.659 101.894 337.002C102.284 334.523 103.168 332.615 104.546 331.228C105.995 329.766 107.45 328.376 109.582 327.525C111.713 326.673 114.51 326.328 118.774 327.217C120.44 327.576 122.083 328.035 123.695 328.591C123.408 324.157 124.16 317.306 130.221 312.272C128.699 311.176 127.387 309.36 126.754 306.653C126.51 305.612 126.38 304.548 126.364 303.478C126.339 301.282 127.009 299.77 126.709 297.666C126.709 297.601 126.692 297.526 126.684 297.449C125.506 298.579 123.937 299.207 122.305 299.201C120.732 299.207 119.209 298.645 118.017 297.616C116.42 296.176 115.562 294.361 116.017 292.077C116.07 291.787 116.14 291.5 116.227 291.218C113.081 291.777 109.464 291.469 105.27 289.881C97.9974 287.127 94.9733 281.08 93.8611 275.633C93.3992 273.294 93.2121 270.909 93.3038 268.527C90.5696 266.989 88.4327 265.224 87.0731 263.416C85.8613 263.828 84.6011 264.081 83.3242 264.167C81.5747 264.29 79.7927 263.952 78.0132 263.341C77.2709 263.039 76.5574 262.67 75.8813 262.239L75.8763 262.242ZM173.398 263.974C170.513 269.034 167.896 274.242 165.558 279.577C161.717 288.504 157.248 299.609 153.946 310.244C153.923 310.395 153.885 310.544 153.834 310.687C153.806 310.767 153.775 310.846 153.739 310.923C151.12 319.467 149.288 327.657 149.175 334.105C149.126 336.518 149.433 338.925 150.087 341.247C151.222 341.883 152.388 342.546 153.586 343.235C152.242 340.08 152.069 336.534 152.734 332.085C153.544 326.681 155.611 319.777 157.825 310.234C161.634 293.84 168.637 282.865 175.715 272.295C173.633 270.352 173.071 267.392 173.283 264.726C173.306 264.473 173.344 264.222 173.398 263.974V263.974ZM238.24 327.99C238.722 328.357 239.278 328.613 239.869 328.742C241.246 328.992 243.118 328.068 243.965 326.608C245.75 323.603 247.367 318.375 246.297 312.926C246.047 311.674 245.245 310.517 244.418 309.303C243.291 307.642 242.069 305.935 241.279 304.079C239.962 300.979 238.879 297.972 238.734 295.438C238.342 288.549 237.145 278.488 233.546 269.987C231.297 264.66 228.108 259.935 223.436 257.216C219.583 254.982 213.904 254.436 208.013 254.674C202.16 254.961 196.353 255.873 190.693 257.396C190.589 257.433 190.482 257.462 190.373 257.484C188.264 258.042 186.197 258.746 184.185 259.592C182.764 260.271 181.414 261.092 180.159 262.044C179.244 262.762 178.489 264.245 178.409 265.131C178.312 266.333 178.294 267.758 179.294 268.592C179.517 268.776 179.771 268.918 180.044 269.013C180.111 269.031 180.177 269.053 180.241 269.078C180.622 269.184 181.014 269.247 181.408 269.265C182.796 269.356 184.563 269.1 186.814 268.439C193.138 266.581 205.102 263.278 213.789 263.764C218.183 264.014 221.787 265.266 223.946 267.673C226.311 270.32 227.945 274.026 229.002 278.125C230.474 283.826 230.867 290.297 230.937 295.293C230.974 297.827 229.835 299.299 227.968 300.278C226.296 301.142 223.656 301.387 220.882 301.881C219.785 302.057 218.704 302.319 217.648 302.664C216.898 302.93 216.148 303.22 215.731 303.731C214.934 304.688 214.349 305.597 214.332 307.738C214.376 308.029 214.473 308.309 214.616 308.566C214.978 309.401 215.486 310.165 216.116 310.82C216.233 310.935 216.413 311.091 216.638 311.273C216.766 311.359 216.887 311.455 216.998 311.561C217.856 312.237 219.095 313.144 220.115 313.883C220.479 313.455 220.821 313.008 221.14 312.545C221.308 312.362 221.463 312.167 221.604 311.962C221.699 311.809 221.879 311.699 221.959 311.509C222.077 311.236 222.474 311.048 222.374 310.692C222.219 309.952 221.816 309.288 221.232 308.809C221.153 308.778 221.081 308.731 221.021 308.672C220.96 308.612 220.911 308.542 220.878 308.463C220.845 308.385 220.828 308.301 220.827 308.216C220.826 308.131 220.843 308.047 220.875 307.968C220.906 307.89 220.953 307.818 221.012 307.758C221.071 307.697 221.142 307.649 221.22 307.616C221.297 307.583 221.381 307.566 221.465 307.565C221.55 307.565 221.634 307.581 221.712 307.612C224.099 307.79 225.033 308.927 225.676 309.989C226.87 311.969 225.578 314.396 225.311 315.115C224.682 316.279 223.928 317.37 223.062 318.37C222.274 319.279 221.265 319.969 220.132 320.373C219.309 320.646 218.419 320.646 217.596 320.373C216.537 320.01 215.654 319.262 215.121 318.277C215.032 318.131 214.958 317.976 214.901 317.814C214.565 318.371 214.382 319.008 214.371 319.659C214.428 320.086 214.601 320.488 214.871 320.821C215.46 321.644 216.221 322.327 217.101 322.825C218.435 323.596 220.07 324.052 221.642 323.471C222.304 323.26 223.069 322.767 223.891 322.219C224.456 321.845 225.043 321.517 225.621 321.129C226.258 320.699 226.853 320.378 227.418 319.957C227.826 319.683 228.217 319.386 228.59 319.066C228.628 318.985 228.681 318.913 228.747 318.853C228.813 318.794 228.891 318.747 228.974 318.718C229.058 318.688 229.147 318.675 229.236 318.68C229.325 318.685 229.412 318.707 229.492 318.745C229.573 318.784 229.645 318.837 229.705 318.904C229.765 318.97 229.811 319.047 229.841 319.132C229.871 319.216 229.883 319.305 229.879 319.395C229.874 319.484 229.851 319.571 229.812 319.652C229.713 320.556 229.487 321.442 229.142 322.284C228.805 323.109 228.369 323.89 227.843 324.61C227.73 324.773 227.613 324.925 227.493 325.078C227.501 325.197 227.501 325.315 227.493 325.434C227.499 325.618 227.534 325.801 227.595 325.975C227.633 326.109 227.702 326.233 227.798 326.335C228.265 326.756 228.858 327.011 229.485 327.061C230.306 327.156 231.139 327.071 231.924 326.811C232.884 326.558 233.808 326.183 234.673 325.694C235.273 325.397 235.846 325.049 236.385 324.652C237.385 323.844 238.212 323.057 238.772 321.898C238.806 321.732 238.904 321.587 239.044 321.493C239.184 321.399 239.356 321.365 239.522 321.397C239.686 321.432 239.831 321.53 239.924 321.671C240.018 321.811 240.053 321.983 240.022 322.148C240.077 323.324 239.902 324.499 239.507 325.607C239.225 326.374 238.836 327.098 238.35 327.755C238.305 327.82 238.257 327.885 238.207 327.95L238.24 327.99ZM180.674 172.489C178.193 172.721 175.697 172.739 173.213 172.542C167.78 172.106 159.357 168.605 152.062 167.596C140.54 166.004 128.629 166.549 115.555 167.816C110.222 168.327 104.971 169.48 99.9144 171.252C99.8031 171.297 99.6886 171.334 99.572 171.362V171.362C99.4659 171.389 99.3582 171.408 99.2496 171.42C99.1946 171.435 98.3199 171.685 97.2502 172.747C96.4787 173.542 95.8369 174.454 95.3482 175.449C94.8059 176.503 94.9358 177.349 95.5981 177.843C96.5579 178.561 98.0424 178.742 99.3471 178.358C100.405 178.009 101.492 177.757 102.596 177.607C103.54 177.491 104.497 177.683 105.323 178.156C106.146 178.658 106.78 179.42 107.125 180.322C107.509 181.355 107.804 182.42 108.007 183.504L108.574 188.738C108.737 189.334 108.952 189.779 109.292 190.017C109.632 190.255 110.041 190.338 110.241 190.067C110.991 189.108 111.426 188.064 111.896 187.113C112.646 185.61 113.308 184.263 114.285 183.357C115.347 182.355 116.477 181.649 118.322 181.907C118.41 181.897 118.5 181.904 118.585 181.929C118.671 181.953 118.751 181.995 118.82 182.05C118.89 182.106 118.948 182.175 118.991 182.253C119.034 182.331 119.061 182.417 119.071 182.505C119.091 182.684 119.039 182.863 118.927 183.004C118.815 183.145 118.652 183.236 118.474 183.256C117.919 183.491 117.448 183.889 117.124 184.398C116.86 184.746 116.82 185.174 116.68 185.623C116.452 186.374 116.392 187.183 116.202 188.072C115.998 189.046 115.706 190 115.33 190.921C115.044 191.592 114.699 192.236 114.298 192.844C113.016 194.815 110.256 195.792 107.717 194.9C106.592 194.497 105.612 193.769 104.9 192.807C106.335 201.458 102.901 210.263 94.0161 215.556C89.7673 218.09 86.0184 218.473 83.6041 218.338C82.3345 225.284 81.4122 232.386 80.7124 239.555C81.7376 239.6 82.7558 239.747 83.7515 239.996C83.8643 239.995 83.9761 240.017 84.0804 240.06C84.1847 240.103 84.2795 240.166 84.3593 240.246C84.4392 240.326 84.5026 240.421 84.5458 240.525C84.589 240.63 84.6113 240.741 84.6113 240.854C84.6106 241.082 84.5201 241.3 84.3595 241.461C84.1989 241.622 83.9812 241.713 83.754 241.713C82.05 242.134 80.4506 242.901 79.0554 243.967C78.6755 244.24 78.3881 244.563 78.0557 244.846C76.7785 245.975 76.2162 247.44 76.0562 248.98C75.8363 250.983 76.5561 253.039 77.7633 254.739C78.513 255.779 79.4203 256.723 80.6299 257.266C82.6643 258.353 84.9062 258.571 86.8157 257.935C87.7379 257.627 88.6101 257.269 89.3149 256.665C90.9495 255.255 91.9467 253.227 91.3519 250.553C91.3114 250.447 91.2922 250.334 91.2954 250.221C91.2986 250.107 91.3242 249.996 91.3707 249.892C91.4172 249.789 91.4836 249.696 91.5662 249.619C91.6487 249.541 91.7458 249.481 91.8517 249.441C91.9574 249.401 92.0699 249.382 92.1829 249.385C92.2959 249.389 92.4071 249.414 92.5102 249.461C92.6133 249.507 92.7062 249.574 92.7836 249.656C92.861 249.739 92.9214 249.836 92.9614 249.942C94.9083 253.41 94.3635 256.703 92.574 259.297C93.6512 260.769 95.4257 262.129 97.715 263.271C98.1667 263.377 98.592 263.575 98.9647 263.852C102.769 265.489 107.712 266.556 113.141 266.664C122.615 266.854 129.781 264.41 133.02 263.05C132.936 261.014 133.285 258.982 134.045 257.091C134.548 255.754 135.277 254.514 136.199 253.425C138.448 250.936 141.402 249.381 144.966 250.17C145.194 250.184 145.406 250.288 145.557 250.459C145.708 250.629 145.785 250.853 145.771 251.081C145.765 251.194 145.736 251.304 145.686 251.406C145.637 251.507 145.568 251.598 145.483 251.673C145.399 251.747 145.3 251.805 145.194 251.841C145.087 251.877 144.974 251.892 144.861 251.885C142.027 252.158 140.388 254.219 139.476 256.718C138.861 258.4 138.833 260.313 139.128 262.197C139.173 262.487 139.231 262.775 139.303 263.058C139.406 263.192 139.499 263.333 139.58 263.481C139.826 263.924 139.97 264.416 140.003 264.921L140.028 264.966C140.14 265.086 140.242 265.214 140.335 265.349C140.484 265.564 140.609 265.794 140.708 266.035C140.863 266.245 141.03 266.445 141.208 266.636C142.427 268.211 144.097 269.376 145.994 269.977C146.811 270.254 147.66 270.43 148.52 270.5C149.663 270.586 150.813 270.464 151.912 270.139C152.192 270.049 152.469 270.019 152.737 269.919C154.261 269.348 155.596 268.667 156.251 267.165C156.269 267.052 156.31 266.944 156.371 266.848C156.431 266.751 156.51 266.668 156.603 266.602C156.696 266.537 156.801 266.49 156.912 266.465C157.024 266.441 157.138 266.438 157.25 266.458C157.363 266.477 157.47 266.518 157.567 266.578C157.663 266.639 157.747 266.718 157.812 266.811C157.878 266.904 157.925 267.01 157.949 267.121C157.974 267.233 157.976 267.348 157.955 267.46C158.145 269.583 157.325 271.321 156.046 272.969C155.482 273.643 154.811 274.22 154.061 274.677C152.562 275.678 150.652 276.132 148.673 276.324C145.581 276.627 142.21 275.824 139.213 273.915C138.429 273.407 137.698 272.819 137.031 272.163C135.093 273.911 133.4 275.914 131.998 278.117C129.188 282.657 125.627 287.382 120.658 289.811C120.623 290.562 120.658 291.168 120.658 291.789C120.658 292.04 120.718 292.263 120.723 292.488C120.741 293.036 120.858 293.467 121.266 293.773C121.505 293.96 121.791 294.075 122.093 294.106C122.26 294.138 122.431 294.132 122.595 294.089C122.759 294.046 122.911 293.966 123.04 293.855C125.202 291.474 127.404 291.391 128.976 292.132C130.331 292.771 131.598 294.386 131.975 296.955C132.313 299.307 131.665 301.002 131.688 303.466C131.698 304.163 131.781 304.857 131.938 305.537C132.228 306.864 132.782 307.79 133.515 308.233C133.965 308.511 134.469 308.712 134.764 308.414C134.947 308.228 134.982 307.933 134.934 307.57C134.789 306.51 134.728 305.44 134.752 304.37C134.799 303.231 135.012 302.106 135.384 301.029C135.669 300.154 136.077 299.325 136.596 298.565C137.352 297.499 138.281 296.568 139.346 295.811C139.463 295.675 139.63 295.591 139.81 295.578C139.989 295.565 140.166 295.623 140.303 295.741C140.439 295.86 140.522 296.027 140.534 296.208C140.547 296.388 140.488 296.566 140.37 296.702C139.588 298.152 139.353 299.457 139.198 300.784C139.083 301.786 139.226 302.715 139.326 303.731C139.42 304.77 139.571 305.804 139.778 306.826C139.81 307.014 139.835 307.199 139.855 307.38C143.074 306.511 146.439 306.328 149.733 306.844C153.009 296.61 157.2 286.125 160.877 277.584C163.361 271.805 166.625 265.482 170.337 259.096C165.883 256.092 157.37 248.181 162.891 234.119C165.456 227.586 169.092 223.699 172.888 221.598C178.887 218.28 185.455 219.302 189.871 222.007C191.36 222.901 192.661 224.077 193.702 225.47L193.817 225.332C203.452 213.938 212.162 197.394 214.761 192.278C213.129 190.526 210.763 188.082 208.263 185.826C206.136 183.892 203.94 182.089 202.085 181.093C199.893 179.913 196.787 179.062 193.635 178.158C190.268 177.192 186.849 176.195 184.22 174.903C182.929 174.296 181.735 173.5 180.676 172.542L180.674 172.489ZM100.339 301.948C99.0521 297.441 96.1105 293.72 89.8273 292.308C85.3786 291.306 82.067 293.019 79.9901 294.762C81.3347 294.261 83.1392 293.875 85.546 293.875C89.6524 293.875 94.0061 294.747 99.0422 300.233C99.5284 300.759 99.9597 301.334 100.329 301.948H100.339ZM70.3479 271.817C65.5618 273.788 59.0761 276.031 53.2003 276.675C47.427 277.308 42.236 276.307 39.1469 272.849C35.8128 269.113 34.1183 264.034 33.361 259.257C32.8058 255.557 32.6533 251.809 32.9062 248.076C32.3635 247.931 31.8342 247.739 31.3241 247.503C30.7709 247.248 30.2371 246.952 29.7271 246.619C28.2832 247.442 26.6837 247.954 25.0309 248.121C24.9359 251.695 25.0884 258.989 27.2803 266.318C29.2422 272.884 32.8437 279.535 39.6317 283.291C42.7658 285.028 47.4969 285.366 52.5005 285.073C59.5235 284.658 67.0813 282.877 72.0299 281.034C71.8499 280.534 71.6833 280.009 71.53 279.462C70.865 276.967 70.4687 274.407 70.3479 271.827V271.817ZM112.336 277.005C111.897 276.797 111.443 276.619 110.979 276.475C109.993 276.189 108.97 276.058 107.945 276.086C106.635 276.031 105.43 276.622 104.381 277.236C103.615 277.693 102.896 278.225 102.236 278.826C103.447 280.981 105.386 282.633 107.705 283.483C115.55 286.443 120.329 282.655 123.763 278.06C123.535 277.975 123.3 277.894 123.05 277.809C121.66 277.362 120.188 277.225 118.739 277.406C117.376 277.478 116.05 277.879 114.875 278.575C113.576 279.35 112.421 280.343 111.461 281.513C111.379 281.683 111.234 281.815 111.056 281.877C110.877 281.94 110.682 281.93 110.511 281.848C110.341 281.766 110.211 281.619 110.149 281.44C110.086 281.261 110.097 281.065 110.179 280.894C110.673 279.481 111.403 278.162 112.336 276.993V277.005ZM217.888 197.354C214.159 204.428 206.294 218.498 197.729 228.627C190.871 236.738 183.313 247.408 176.83 258.147L176.992 258.015C178.565 256.821 180.255 255.791 182.036 254.94L182.098 254.912C184.079 254.071 186.113 253.361 188.187 252.786C196.634 238.904 205.022 229.191 215.251 217.146C220.41 211.076 222.807 207.318 223.879 205.032C224.016 204.739 224.129 204.461 224.219 204.213C222.13 202.911 220.341 201.181 218.97 199.135C218.58 198.562 218.223 197.968 217.9 197.354H217.888ZM117.249 239.923C115.832 240.083 114.432 240.374 113.068 240.792C111.617 241.242 110.239 241.899 108.974 242.743C106.897 244.11 105.58 246.208 104.975 248.722C104.566 251.191 105.065 253.162 106.025 254.602C106.839 255.861 108.059 256.803 109.482 257.271C110.771 257.674 112.168 257.905 113.595 257.622C114.458 257.449 115.295 257.291 116.095 256.87C117.969 255.901 119.531 254.714 120.344 253.027C120.513 252.832 120.599 252.579 120.583 252.321C120.567 252.064 120.449 251.823 120.256 251.652C120.063 251.481 119.81 251.394 119.552 251.41C119.295 251.426 119.055 251.544 118.884 251.737C117.507 252.644 115.635 252.426 113.82 252.12C113.05 251.959 112.353 251.547 111.841 250.948C111.641 250.736 111.49 250.483 111.399 250.207C111.307 249.931 111.276 249.638 111.309 249.348C111.239 247.828 111.956 246.531 112.966 245.489C114.398 244.048 116.015 242.803 117.774 241.789C117.897 241.754 118.013 241.696 118.113 241.617C118.214 241.539 118.298 241.441 118.361 241.329C118.424 241.218 118.464 241.095 118.48 240.968C118.495 240.841 118.486 240.712 118.452 240.589C118.417 240.466 118.359 240.35 118.281 240.249C118.202 240.149 118.105 240.064 117.993 240.001C117.882 239.938 117.76 239.898 117.633 239.882C117.506 239.867 117.377 239.876 117.254 239.91L117.249 239.923ZM156.036 237.199C155.962 237.323 155.845 237.417 155.707 237.463C155.57 237.509 155.42 237.504 155.286 237.449C154.926 237.269 154.589 236.683 154.504 236.522C153.971 235.553 153.661 234.74 153.179 234.051C151.929 232.286 150.602 232.068 149.623 232.158C148.231 232.286 146.993 233.5 146.494 234.364C146.131 235.023 145.9 235.747 145.814 236.495C145.659 237.589 145.654 239.209 145.411 241.621C145.411 241.721 145.361 242.162 145.144 242.179C144.926 242.197 144.472 241.794 144.427 241.738C143.319 240.521 142.7 238.483 142.615 235.899C142.523 233.435 142.8 230.972 143.434 228.59C143.468 228.507 143.485 228.419 143.484 228.329C143.483 228.24 143.465 228.152 143.43 228.07C143.395 227.988 143.344 227.913 143.281 227.851C143.217 227.788 143.142 227.739 143.06 227.706C142.977 227.672 142.889 227.655 142.799 227.655C142.71 227.655 142.622 227.673 142.54 227.708C142.458 227.743 142.383 227.793 142.32 227.857C142.258 227.921 142.208 227.996 142.175 228.079C141.04 230.042 140.17 232.147 139.588 234.339C139.344 235.325 139.187 236.33 139.121 237.344C138.893 240.349 139.645 242.81 140.758 244.543C141.49 245.449 142.415 246.18 143.464 246.684C144.289 247.08 145.2 247.262 146.114 247.215C147.901 247.107 149.908 246.088 150.427 242.187L150.63 240.218C150.762 240.411 150.905 240.607 151.062 240.807C152.479 242.612 155.861 243.586 158.493 241.984C159.992 241.06 161.409 239.287 161.584 236.097C161.607 235.644 161.487 232.869 161.752 229.551C161.904 227.616 162.164 225.472 162.751 223.542C162.964 222.534 163.31 221.56 163.781 220.644C164.078 220.031 164.437 219.45 164.853 218.912C166.078 217.449 167.616 216.282 169.352 215.496C169.525 215.446 169.671 215.33 169.758 215.173C169.846 215.016 169.868 214.83 169.819 214.657C169.769 214.484 169.653 214.338 169.497 214.251C169.34 214.163 169.155 214.141 168.982 214.189C166.323 214.484 164.301 215.221 162.581 216.34C161.127 217.289 160.04 218.568 159.117 220.096C158.765 220.723 158.461 221.376 158.208 222.049C157.582 223.872 157.132 225.751 156.866 227.661C156.283 231.667 156.416 235.258 156.366 235.789C156.357 236.273 156.24 236.75 156.023 237.184L156.036 237.199ZM26.2555 242.547C26.1382 242.248 26.0495 241.939 25.9906 241.623C25.8293 240.601 25.7924 239.562 25.8807 238.531C25.9131 238.22 26.0706 237.704 26.4255 237.617C26.7804 237.529 26.9679 237.912 27.1753 238.22C27.6672 238.989 28.2385 239.704 28.8798 240.354C29.2872 240.749 31.9889 242.697 33.1936 243.188C34.9281 243.897 37.0175 243.604 39.3468 241.686C40.133 241.064 40.9514 240.484 41.7986 239.948C42.8833 239.247 44.1579 238.483 45.445 237.762C46.6147 237.108 47.4745 235.979 48.0193 234.795C48.5866 233.558 48.8641 232.233 48.5192 231.289C47.9251 229.631 46.8876 228.168 45.52 227.06C43.5706 225.43 41.4137 224.613 40.2865 224.032C39.2493 223.494 38.3971 223.384 37.7023 223.577C36.5176 223.905 35.8378 224.919 35.5979 225.284C34.8056 226.459 34.8481 227.555 35.283 228.54C35.4279 228.853 35.5904 229.158 35.7653 229.459C36.0777 229.992 36.3452 230.528 36.6951 231.024C37.7026 232.445 38.8306 233.776 40.0666 235.003C40.2246 235.079 40.346 235.216 40.404 235.382C40.4621 235.548 40.4522 235.73 40.3765 235.889C40.2999 236.047 40.1637 236.169 39.9978 236.227C39.8319 236.284 39.6499 236.274 39.4918 236.197C38.3341 235.934 37.201 235.572 36.1052 235.115C35.3511 234.798 34.6254 234.417 33.9359 233.976C33.1993 233.508 32.5271 232.946 31.9364 232.303C31.5248 231.832 31.1715 231.312 30.8842 230.756C30.7842 230.573 30.6893 230.388 30.6018 230.197C29.817 231.908 28.6799 232.862 27.5227 233.352C25.1459 234.354 21.6919 234.604 18.7752 233.037C18.1013 234.678 16.8132 235.99 15.1862 236.693C14.59 236.948 13.9646 237.128 13.3243 237.229C13.7351 238.423 14.422 239.503 15.329 240.381C16.2359 241.259 17.3371 241.909 18.5428 242.279C22.3592 243.504 24.9259 243.051 26.2631 242.575L26.2555 242.547ZM131.91 238.719C127.262 241.934 125.202 236.981 125.707 231.156C126.167 225.85 127.399 218.992 129.538 214.337C131.678 209.682 136.644 208.077 140.063 210.305C144.234 213.009 141.812 218.258 138.278 224.493C137.121 226.531 136.264 229.363 135.279 231.883C133.987 235.193 132.78 238.113 131.908 238.719H131.91ZM186.699 226.081C184.961 225.128 183.012 224.628 181.031 224.628C179.05 224.628 177.101 225.128 175.363 226.081C172.384 227.731 169.662 230.871 167.652 235.982C167.522 236.315 167.403 236.638 167.295 236.961C170.212 231.988 175.075 227.946 179.494 226.694C181.838 226.05 184.282 225.849 186.699 226.101V226.081ZM110.344 234.805C106.22 238.671 103.453 234.076 103.096 228.242C102.769 222.926 102.981 215.972 104.413 211.039C105.845 206.106 110.521 203.807 114.228 205.497C118.751 207.556 117.132 213.105 114.55 219.795C113.708 221.981 113.276 224.911 112.673 227.543C111.883 231.011 111.121 234.076 110.344 234.805V234.805ZM13.2593 219.182C13.2517 219.075 13.2517 218.968 13.2593 218.861C13.2756 218.123 13.1761 217.387 12.9644 216.68C12.9135 216.519 12.8482 216.362 12.7694 216.212C12.7219 216.127 12.7094 216.012 12.612 215.982C12.4824 215.959 12.3492 215.97 12.2246 216.012C10.9075 216.29 9.87776 216.673 9.20295 217.492C7.9758 218.994 7.85584 221.448 8.20324 225.427C8.51565 229.075 9.63283 231.144 10.9824 231.862C11.1185 231.908 11.2505 231.965 11.3773 232.033C11.9739 232.225 12.6206 232.189 13.1918 231.93C13.9641 231.602 14.1915 230.793 14.3365 230.142L14.4939 228.369C14.4939 228.289 14.4939 228.204 14.4939 228.119C13.8928 226.632 13.5284 225.059 13.4142 223.459C13.2827 222.036 13.2377 220.607 13.2793 219.179L13.2593 219.182ZM18.3353 219.457C18.3353 220.494 18.3928 221.676 18.5078 223.021C18.7252 225.545 19.4775 227.18 20.6172 228.094C22.1417 229.321 24.1912 229.153 25.5233 228.595C25.8382 228.464 25.9731 228.094 26.1331 227.593C26.3971 226.623 26.52 225.619 26.498 224.613C26.5255 220.857 27.2478 216.525 26.543 214.149C26.0606 212.524 24.5436 212.679 22.8116 213.024C21.4045 213.307 20.3123 213.721 19.59 214.595C18.8677 215.468 18.4803 216.748 18.3728 218.441C18.3878 218.841 18.3728 219.087 18.3728 219.087C18.368 219.217 18.353 219.347 18.3278 219.475L18.3353 219.457ZM134.897 222.294C136.209 220.139 138.766 216.896 138.231 215.08C137.906 213.974 136.529 213.225 135.467 214.933C134.787 216.024 134.327 218.513 134.017 221.318C133.802 223.269 134.389 223.133 134.897 222.294V222.294ZM38.6595 218.248C38.7195 214.845 39.5742 209.609 43.2982 203.9C46.4023 199.142 49.7713 195.358 51.9082 192.243C52.5458 191.38 53.0684 190.437 53.4628 189.439C53.6752 188.828 53.7127 188.279 53.2928 187.794C51.9807 186.306 49.6063 186.219 47.0646 187.03C42.146 188.603 36.745 193.711 34.1333 202.417C32.4863 207.906 32.8162 215.606 33.2285 220.196C34.1177 219.425 35.1618 218.853 36.2902 218.521C37.0598 218.3 37.8596 218.204 38.6595 218.235V218.248ZM110.889 218.12C111.868 215.791 113.918 212.208 113.126 210.49C112.638 209.444 111.169 208.908 110.376 210.741C109.877 211.92 109.774 214.452 109.877 217.269C109.949 219.232 110.509 219.022 110.891 218.108L110.889 218.12ZM179.007 195.466C179.007 195.561 179.027 195.654 179.037 195.734C179.332 197.84 178.657 199.35 178.674 201.546C178.686 202.616 178.813 203.683 179.052 204.726C180.281 210.162 184.28 212.025 187.237 211.702C188.066 211.624 188.867 211.36 189.58 210.93C190.294 210.499 190.901 209.914 191.358 209.216C192.075 208.109 192.478 206.639 192.193 204.829C191.915 203.076 191.778 201.463 192.065 199.918C192.304 198.65 192.84 197.457 193.63 196.438C193.782 197.352 194.162 198.213 194.735 198.942C195.237 199.588 195.882 200.108 196.619 200.461C197.357 200.814 198.166 200.99 198.983 200.975C200.428 200.91 201.68 200.377 202.555 199.132C203.264 198.076 203.781 196.903 204.084 195.666C204.372 194.567 204.557 193.465 204.792 192.539C204.857 192.288 204.904 192.038 204.977 191.823C205.002 191.748 205.227 191.021 205.454 190.821C205.681 190.621 206.054 190.087 205.811 189.799C205.424 189.344 204.537 189.567 203.86 190.153C202.977 190.904 202.055 192.907 200.965 194.717C200.669 195.215 200.335 195.689 199.966 196.135C199.853 196.23 199.722 196.301 199.581 196.344C199.441 196.387 199.292 196.401 199.146 196.385C198.921 196.355 198.713 196.246 198.561 196.077C198.396 195.771 198.347 195.415 198.424 195.076C198.711 192.922 197.454 191.357 195.617 190.791C194.117 190.325 191.948 190.653 190.211 192.606C188.59 194.385 187.481 196.571 187.004 198.932C186.584 201.03 186.682 203.229 187.037 205.623C187.084 205.941 187.109 206.206 186.952 206.374C186.679 206.657 186.202 206.476 185.795 206.226C185.062 205.783 184.498 204.881 184.203 203.569C184.047 202.89 183.963 202.196 183.953 201.498C183.923 199.047 184.565 197.349 184.223 194.988C183.843 192.416 182.578 190.816 181.224 190.183C179.676 189.454 177.522 189.529 175.4 191.815C175.186 191.885 174.96 191.911 174.735 191.893C174.65 191.873 174.54 191.873 174.5 191.778C173.952 190.534 173.739 189.168 173.883 187.816C173.964 186.596 174.117 185.382 174.341 184.18C174.59 182.906 174.775 181.631 175.043 180.109C175.078 180.027 175.097 179.939 175.099 179.85C175.1 179.761 175.084 179.672 175.052 179.59C175.019 179.507 174.97 179.431 174.908 179.367C174.846 179.303 174.772 179.252 174.69 179.217C174.609 179.182 174.521 179.162 174.432 179.161C174.343 179.159 174.255 179.175 174.172 179.207C174.089 179.24 174.013 179.289 173.949 179.35C173.885 179.412 173.834 179.486 173.798 179.568C172.856 180.82 172.019 181.837 171.299 182.936C170.437 184.185 169.78 185.564 169.352 187.02C168.767 189.118 169.012 191.252 169.882 193.651C170.654 195.654 172.319 196.656 174.083 196.936C176.008 197.241 177.994 196.5 179.027 195.461L179.007 195.466ZM139.735 173.498C134.572 175.677 131.588 178.699 130.006 182.105C127.714 187.045 128.431 192.977 130.366 198.849C132.438 205.147 137.963 209.083 144.219 209.166C148.251 209.221 152.629 207.663 156.526 203.95C166.153 194.777 166.523 183.166 161.122 177.527C155.721 171.888 148.653 169.737 139.735 173.498V173.498ZM94.371 184.927C95.9405 187.366 97.87 190.911 98.4898 194.397C99.1246 197.948 99.2396 200.614 98.6722 203.121C100.137 199.732 100.448 195.955 99.557 192.371C98.6847 188.683 96.3279 186.314 94.371 184.927V184.927ZM183.883 168.565C184.842 169.617 186.522 170.318 188.421 171.014C193.625 172.932 200.505 174.232 204.554 176.403C206.711 177.57 209.303 179.633 211.767 181.897C212.997 183.026 214.197 184.2 215.301 185.317C215.344 181.476 216.141 177.995 217.678 175.051C218.304 173.812 219.087 172.66 220.007 171.623C220.923 170.589 221.984 169.694 223.156 168.966C224.303 168.256 225.543 167.711 226.84 167.348C228.099 167.012 229.39 166.817 230.692 166.767C230.856 166.72 231.032 166.74 231.181 166.822C231.331 166.905 231.441 167.044 231.489 167.208C231.513 167.289 231.52 167.375 231.511 167.459C231.502 167.543 231.476 167.625 231.435 167.699C231.394 167.773 231.339 167.839 231.273 167.891C231.206 167.944 231.131 167.983 231.049 168.007C230.042 168.603 229.083 169.279 228.183 170.027C227.332 170.72 226.533 171.473 225.791 172.281C225.08 173.04 224.43 173.852 223.844 174.71C223.258 175.548 222.744 176.434 222.307 177.359C220.67 180.842 220.18 185.122 220.98 189.9C221.295 192.143 222.093 194.291 223.319 196.195C225.368 199.3 227.923 200.364 227.923 200.364C228.06 200.415 228.193 200.477 228.32 200.549C228.847 200.842 240.849 207.343 252.131 198.499C258.824 193.24 259.643 186.957 258.129 181.028C258.096 180.945 258.064 180.862 258.039 180.777C257.18 178.423 255.918 176.237 254.31 174.317C253.362 173.184 252.276 172.175 251.078 171.312C250.298 170.729 249.46 170.225 248.579 169.81C247.143 169.063 245.636 168.463 244.08 168.017C241.316 167.17 239.059 166.682 239.059 166.682C238.889 166.683 238.725 166.616 238.604 166.496C238.482 166.375 238.413 166.212 238.412 166.041C238.411 165.956 238.427 165.872 238.458 165.794C238.49 165.716 238.537 165.644 238.596 165.584C238.655 165.523 238.726 165.476 238.804 165.443C238.881 165.41 238.965 165.393 239.049 165.393C241.226 164.977 243.44 164.79 245.655 164.834C246.869 164.874 248.077 165.03 249.261 165.3C241.631 157.385 226.878 148.553 216.906 144.604C213.879 143.404 210.015 142.16 205.756 140.903C205.598 140.872 205.442 140.825 205.292 140.765C192.63 137.047 176.707 133.22 169.075 130.093C166.785 129.154 163.916 128.741 160.747 128.613C160.488 128.646 160.226 128.637 159.97 128.588C156.603 128.505 152.937 128.716 149.288 128.959C148.493 129.009 147.701 129.064 146.908 129.119C146.836 129.127 146.764 129.131 146.691 129.131C145.794 129.194 144.901 129.257 144.017 129.314C142.373 129.564 140.778 130.071 139.291 130.817C137.084 131.917 135.241 133.633 133.985 135.757C133.28 136.899 132.708 138.118 132.283 139.39C131.973 140.302 131.743 141.173 131.533 142.005C131.223 143.307 130.968 144.441 130.831 145.473C130.523 147.777 130.491 149.196 130.491 149.196C130.518 149.272 130.529 149.352 130.525 149.432C130.521 149.512 130.502 149.59 130.467 149.663C130.433 149.735 130.384 149.8 130.325 149.853C130.266 149.907 130.196 149.948 130.121 149.975C129.969 150.029 129.801 150.02 129.656 149.951C129.51 149.881 129.398 149.757 129.343 149.604C129.343 149.604 128.344 148.26 127.594 145.723C127.208 144.338 127.027 142.904 127.057 141.466C127.104 140.006 127.352 138.559 127.794 137.167C128.225 135.77 128.812 134.426 129.543 133.16C130.29 131.874 131.192 130.684 132.228 129.617C130.826 129.552 129.432 129.37 128.061 129.071C119.001 126.965 111.858 130.789 105.158 133.686C98.8147 136.441 92.2666 141.905 92.7965 152.87C93.0864 158.879 97.4901 163.918 99.5445 165.966C104.58 164.34 109.775 163.258 115.04 162.738C128.536 161.431 140.845 160.898 152.742 162.54C159.94 163.542 168.237 167.025 173.601 167.453C174.901 167.557 176.206 167.594 177.51 167.564C177.258 166.971 177.042 166.364 176.862 165.746C176.475 164.451 176.26 163.11 176.222 161.759C176.173 160.085 176.41 158.415 176.925 156.821C177.444 155.295 178.197 153.859 179.157 152.564C179.189 152.493 179.235 152.43 179.293 152.376C179.35 152.323 179.417 152.282 179.49 152.255C179.563 152.228 179.641 152.216 179.719 152.219C179.797 152.222 179.873 152.241 179.944 152.274C180.075 152.335 180.179 152.442 180.236 152.575C180.294 152.708 180.301 152.857 180.256 152.995C180.026 154.118 179.905 155.261 179.894 156.408C179.86 158.02 180.049 159.629 180.456 161.188C180.702 162.196 181.022 163.183 181.413 164.143C181.932 165.469 182.603 166.729 183.413 167.899C183.614 168.089 183.783 168.31 183.913 168.555L183.883 168.565ZM226.87 182.741C225.371 186.694 225.453 189.96 226.413 192.652C227.163 194.785 228.602 196.473 230.327 197.845C231.466 198.708 232.717 199.413 234.046 199.938C235.188 200.349 236.387 200.581 237.6 200.627C239.267 200.696 240.935 200.519 242.551 200.101C245.27 199.432 247.764 198.057 249.784 196.115C251.005 194.88 251.915 193.372 252.438 191.715C253.102 189.415 253.265 186.999 252.915 184.631C252.9 184.452 252.814 184.286 252.677 184.17C252.54 184.054 252.362 183.997 252.183 184.013C252.094 184.02 252.008 184.044 251.929 184.085C251.849 184.125 251.779 184.181 251.721 184.249C251.664 184.317 251.62 184.396 251.593 184.481C251.566 184.565 251.556 184.655 251.563 184.744C251.427 186.466 251.005 188.152 250.314 189.734C249.698 191.172 248.694 192.41 247.415 193.308C245.603 194.615 243.531 195.138 241.609 195.401C240.577 195.531 239.536 195.575 238.497 195.531C237.335 195.496 236.35 195.404 235.73 195.191C234.268 194.804 232.898 194.129 231.699 193.205C230.918 192.607 230.242 191.881 229.7 191.059C228.45 189.073 227.788 186.514 228.2 183.066C228.242 182.891 228.213 182.706 228.12 182.552C228.026 182.398 227.875 182.287 227.7 182.245C227.613 182.223 227.523 182.22 227.435 182.233C227.347 182.247 227.262 182.278 227.185 182.324C227.109 182.371 227.043 182.432 226.99 182.504C226.937 182.577 226.899 182.659 226.878 182.746L226.87 182.741ZM157.89 193.681C158.922 191.647 159.487 189.408 159.542 187.128C159.56 184.731 158.86 182.588 157.423 181.085C153.526 177.014 148.425 175.526 142.03 178.118C146.546 177.222 151.777 177.963 154.471 180.484C156.678 182.555 158.22 188.274 157.89 193.681ZM103.201 187.458C103.152 186.516 103.047 185.578 102.889 184.649C102.784 184.18 102.679 183.482 102.571 183.076C102.464 182.67 102.176 182.896 102.051 182.943C101.671 183.094 101.229 183.276 100.802 183.399C100.679 183.434 100.552 183.469 100.434 183.499C101.527 184.687 102.452 186.019 103.183 187.458H103.201ZM252.031 179.848C251.893 178.208 251.301 176.64 250.321 175.319C249.439 174.067 248.234 173.195 247.03 172.116C246.312 171.642 245.512 171.308 244.67 171.134C243.636 170.926 242.578 170.859 241.526 170.934C239.589 171.077 237.735 171.515 236.463 172.369C236.379 172.4 236.303 172.447 236.238 172.508C236.173 172.569 236.12 172.642 236.083 172.723C236.046 172.804 236.026 172.892 236.023 172.981C236.02 173.07 236.034 173.159 236.065 173.243C236.129 173.411 236.256 173.547 236.42 173.621C236.583 173.696 236.769 173.702 236.938 173.638C237.937 173.516 239.062 173.869 240.302 174.197C241.336 174.475 242.301 174.893 243.181 175.198C243.781 175.414 244.3 175.551 244.57 175.742C245.32 176.142 246.042 176.518 246.755 176.901C247.425 177.214 248.066 177.587 248.669 178.015C249.502 178.621 250.207 179.387 250.741 180.269C250.798 180.44 250.92 180.582 251.08 180.664C251.241 180.745 251.427 180.76 251.598 180.705C251.769 180.648 251.911 180.526 251.992 180.365C252.073 180.204 252.087 180.017 252.031 179.846V179.848ZM198.076 133.388C196.772 132.454 195.555 131.402 194.442 130.246C193.522 129.229 192.578 128.328 191.693 127.471C190.646 126.457 189.694 125.543 188.801 124.744C186.36 122.541 184.688 121.276 184.688 121.276C184.611 121.241 184.542 121.191 184.485 121.129C184.427 121.067 184.383 120.994 184.354 120.914C184.325 120.835 184.312 120.751 184.316 120.666C184.319 120.582 184.339 120.499 184.375 120.422C184.447 120.267 184.577 120.147 184.737 120.087C184.898 120.028 185.075 120.035 185.23 120.107C186.378 120.425 187.502 120.822 188.596 121.294C189.69 121.755 190.758 122.278 191.793 122.859C192.626 123.322 193.434 123.828 194.215 124.376C195.383 125.214 196.502 126.121 197.564 127.091C199.131 128.555 201.005 129.725 202.735 130.666C203.001 130.812 203.266 130.952 203.53 131.087C201.541 129.074 199.738 126.886 198.141 124.549C196.654 122.413 195.244 120.082 193.795 117.67C191.601 113.709 189.296 111.142 187.259 109.427C183.833 106.537 181.239 106.089 181.239 106.089C181.063 106.084 180.897 106.009 180.777 105.882C180.656 105.754 180.591 105.584 180.596 105.408C180.598 105.321 180.618 105.235 180.653 105.156C180.689 105.077 180.74 105.005 180.803 104.946C180.866 104.886 180.94 104.84 181.022 104.809C181.103 104.778 181.189 104.764 181.276 104.767C181.276 104.767 184.418 104.517 188.869 107.161C191.438 108.693 194.34 111.28 197.366 115.372C198.908 117.625 200.443 119.756 201.965 121.767C204.412 125 206.866 127.844 209.69 129.888C212.772 132.121 216.271 133.373 220.58 133.118C222.827 133.004 225.025 132.417 227.03 131.394C229.035 130.372 230.802 128.937 232.216 127.183C234.991 123.723 236.215 119.17 235.023 114.791C234.211 111.786 232.151 109.96 229.945 108.816C227.475 107.531 224.796 107.048 223.086 106.865C223.086 107.033 223.101 107.198 223.106 107.366C223.251 111.4 222.607 113.994 222.607 113.994C222.599 114.081 222.575 114.165 222.535 114.242C222.495 114.319 222.44 114.387 222.373 114.443C222.307 114.499 222.23 114.541 222.148 114.567C222.065 114.593 221.978 114.603 221.892 114.595C221.805 114.588 221.721 114.563 221.644 114.523C221.567 114.483 221.499 114.428 221.443 114.361C221.387 114.294 221.345 114.217 221.319 114.134C221.293 114.051 221.284 113.963 221.292 113.877C221.292 113.877 220.887 110.271 219.043 105.423C218.933 105.234 218.848 105.031 218.793 104.82C218.705 104.607 218.62 104.391 218.528 104.174C218.165 103.31 217.796 102.401 217.356 101.474C216.402 99.4186 215.213 97.4816 213.812 95.7023C211.54 92.7125 209.046 91.1299 206.409 90.4563C203.345 89.6751 200.108 90.0707 196.844 90.9346C195.542 91.2788 194.208 91.487 192.863 91.5556C191.962 91.6029 191.059 91.5534 190.168 91.4079C189.058 91.2029 187.981 90.8501 186.964 90.3587C185.03 89.4247 184.125 88.5558 184.125 88.5558C183.971 88.4716 183.857 88.3297 183.807 88.1612C183.758 87.9926 183.777 87.8113 183.86 87.6568C183.946 87.5046 184.089 87.3928 184.257 87.3459C184.425 87.299 184.605 87.3207 184.758 87.4064C185.886 87.5309 187.023 87.5652 188.157 87.5091C189.049 87.4765 190.021 87.2837 191.191 87.1385C191.883 87.0533 192.628 86.9657 193.413 86.828C191.311 84.2001 188.908 81.8284 186.255 79.7615C182.846 77.1548 178.617 74.8987 173.908 74.8236C168.635 74.7384 165.728 77.8284 164.288 81.5094C162.711 85.5584 162.744 90.3136 163.491 93.0455C164.526 96.8241 167.512 100.468 169.359 102.448C169.747 101.947 170.109 101.539 170.447 101.161C170.921 100.624 171.434 100.122 171.981 99.6587C172.046 99.4956 172.172 99.3647 172.333 99.2948C172.494 99.2249 172.675 99.2216 172.838 99.2856C173.001 99.3503 173.132 99.4771 173.202 99.638C173.271 99.799 173.275 99.9811 173.211 100.144C173.256 100.932 173.237 101.722 173.153 102.506C173.109 103.077 173.025 103.644 172.903 104.204C172.783 104.75 172.625 105.287 172.431 105.811C171.611 108.035 170.219 110.611 168.745 113.273C167.532 115.401 166.451 117.602 165.511 119.864C164.906 121.286 164.388 122.618 163.973 123.72C166.618 123.988 169.015 124.471 171.016 125.305C176.887 127.707 187.667 130.526 198.084 133.388H198.076Z" fill="#FEDF4B"/>
<path fill-rule="evenodd" clip-rule="evenodd" d="M195.849 438.957C218.82 440.525 233.838 443.109 233.838 446.026C233.838 450.801 193.6 454.68 144.064 454.68C94.5285 454.68 54.29 450.801 54.29 446.026C54.29 441.251 94.5285 437.372 144.064 437.372C150.927 437.372 157.61 437.445 164.036 437.585C161.979 439.806 160.195 442.46 162.286 443.404C164.833 444.551 169.534 445.107 174.166 444.479C174.166 444.479 184.465 444.549 188.714 442.976C191.408 441.975 194.187 440.157 195.864 438.95L195.849 438.957Z" fill="#FEDF4B"/>
</g>
<g clip-path="url(#clip1_81_2)">
<path d="M6.69484 74.11C5.4441 72.8112 3.97602 72.9367 2.31826 74.5261C2.07594 74.7527 1.84508 74.9915 1.62657 75.2415L0.37813 73.9303C2.78141 71.9741 5.33686 69.7599 8.07462 67.307C10.8124 64.8541 13.2691 62.5864 15.3713 60.5026L16.5118 61.9081C14.2695 63.769 13.7418 65.413 14.8893 66.7714L25.5105 79.4099C25.8241 79.8123 26.2321 80.1296 26.6978 80.3332C27.1021 80.4917 27.6042 80.4591 28.1958 80.2371C28.7875 80.0151 29.4879 79.5652 30.2989 78.8934L31.4294 80.2864C28.9647 81.9979 26.6035 83.8563 24.3584 85.8517C22.0975 87.8924 19.9585 90.0664 17.9525 92.3622L16.7181 91.0617C17.3296 90.5069 17.8616 89.869 18.2987 89.1663C18.5839 88.7218 18.6994 88.1879 18.6237 87.6641C18.4999 87.1368 18.2317 86.6554 17.8497 86.2745L6.69484 74.11Z" fill="#FEDF4B"/>
<path d="M25.269 67.6139C24.1757 67.2288 23.032 67.0088 21.8748 66.961C20.9233 66.9569 20.0029 67.3031 19.2863 67.9347L18.1136 66.51C20.6443 64.7305 23.2191 62.8224 25.8381 60.7857C27.2035 59.7267 28.2976 58.8677 29.1151 58.1817C29.9325 57.4956 31.2686 56.3764 33.1455 54.8327L34.2261 56.3706C32.4154 57.6731 31.7703 58.6937 32.2775 59.391C32.425 59.5877 32.6146 59.7484 32.8322 59.8612C33.2176 60.0481 33.8419 60.3099 34.7051 60.6488C36.9718 61.5461 39.2162 62.471 41.4382 63.4235C41.3178 61.0019 41.2329 58.5706 41.1835 56.1299C41.2267 55.1378 41.0933 54.403 40.7752 53.9215C40.6227 53.6871 40.4068 53.5017 40.1532 53.3871C39.8995 53.2725 39.6187 53.2335 39.3437 53.2747C38.6199 53.3583 37.9307 53.6332 37.3459 54.0716C37.2507 54.1368 37.0108 54.3374 36.626 54.6733L35.5082 53.1593C37.2927 52.1359 38.8886 51.1619 40.2963 50.223C41.8356 49.1958 43.4408 48.0432 45.1117 46.7651L46.0973 48.3647C45.4698 48.7958 44.9555 49.3742 44.5985 50.05C44.2514 50.698 43.9953 51.3915 43.8379 52.1106C43.6959 52.7545 43.6099 53.4097 43.5808 54.0687C43.5599 54.6768 43.5451 55.1562 43.5364 55.5069C43.5112 60.5983 43.6261 65.6515 43.8811 70.6665C42.7967 71.4456 41.7169 72.2364 40.6416 73.039C35.6306 71.0795 30.5064 69.2711 25.269 67.6139Z" fill="#FEDF4B"/>
<path d="M57.0431 39.071C59.7734 37.5554 62.1528 36.9309 64.125 37.1634C66.0972 37.396 67.6209 38.02 68.7003 39.0336C69.6896 39.9338 70.5077 41.0086 71.1143 42.2051C66.6353 44.4304 62.2115 46.8048 57.8431 49.3284C58.3452 50.0298 58.8828 50.7047 59.4537 51.3503C59.8859 51.824 60.3537 52.2634 60.8529 52.6646C61.5084 53.1795 62.255 53.5642 63.0528 53.7983C63.8106 54.0081 64.603 54.0596 65.3813 53.9499C66.1799 53.843 66.9526 53.5903 67.6614 53.2041C68.839 52.5732 69.8362 51.6475 70.557 50.5159C71.3107 49.34 71.8661 48.0462 72.2005 46.6873C72.7996 46.8246 73.3966 46.9645 73.9915 47.1072C73.5893 48.4875 73.0666 49.8292 72.4297 51.1165C71.7816 52.3575 70.9397 53.4853 69.9363 54.4565C68.8747 55.5116 67.4635 56.5203 65.7021 57.5113C64.2439 58.3341 62.6765 58.9423 61.0477 59.3176C59.598 59.6605 58.1009 59.7508 56.6213 59.5846C55.2993 59.4383 54.0239 59.0078 52.8811 58.322C51.7717 57.6421 50.8378 56.7066 50.1562 55.5922C49.0741 53.9273 48.5385 51.9612 48.6251 49.972C48.7234 48.0024 49.4797 46.0528 50.9116 44.1522C52.3435 42.2517 54.389 40.545 57.0431 39.071ZM57.0923 47.9989C58.8805 46.9632 60.6831 45.9518 62.5001 44.9646L61.7573 43.8429C61.5123 43.4718 61.2673 43.1049 61.0222 42.7379C59.5984 40.944 58.1598 40.441 56.7305 41.2437C55.6253 42.0429 55.4095 43.492 56.0892 45.5848C56.1603 45.7919 56.3093 46.1671 56.5347 46.6961L57.0923 47.9989Z" fill="#FEDF4B"/>
<path d="M95.7339 47.1681C95.5676 46.737 95.6137 46.224 95.8721 45.6291C96.1257 45.0437 96.4451 44.4895 96.8239 43.9775C97.1973 43.4714 97.4168 43.2087 97.4785 43.1853C96.9434 43.0281 96.4351 42.7901 95.9707 42.4794C95.6133 42.2211 95.3131 41.7666 95.0698 41.12C94.8461 40.5452 94.766 39.9236 94.8367 39.31C94.9224 38.8163 95.2514 38.2907 95.8293 37.7539C96.6443 37.0369 97.5274 36.4025 98.4656 35.8601C99.3964 35.2752 100.332 34.6972 101.272 34.1261C101.255 34.0723 100.485 34.1466 98.9595 34.3717C97.4343 34.5967 96.5066 34.7088 96.1995 34.6757C95.0206 34.5379 93.8961 34.0989 92.9325 33.4004C92.0282 32.7633 91.3325 31.8692 90.9339 30.8317C90.6882 30.1816 90.5751 29.4881 90.6012 28.7927C90.6273 28.0973 90.7922 27.4144 91.086 26.7847C91.6858 25.3951 92.8225 24.064 94.5036 22.8184C96.1847 21.5728 98.339 20.5077 100.957 19.6642C103.832 18.7255 106.874 18.4307 109.872 18.8004C112.52 17.5195 115.196 16.2845 117.899 15.0952C118.323 16.8462 118.748 18.5951 119.173 20.342C117 20.2964 114.816 20.2877 112.621 20.3157C113.13 20.6042 113.577 20.9935 113.934 21.4602C114.292 21.9269 114.552 22.4615 114.7 23.032C115.009 24.2042 114.853 25.4242 114.26 26.6947C113.667 27.9652 112.656 29.1385 111.247 30.2295C109.838 31.3204 108.11 32.1827 106.058 32.8366L105.865 32.8984C105.827 32.9107 105.79 32.9257 105.754 32.9433C105.711 32.9627 105.664 32.9742 105.617 32.9775L105.024 33.1706L104.796 33.246C103.495 33.669 102.967 34.2501 103.207 34.9726C103.261 35.0963 103.344 35.2049 103.448 35.2891C103.553 35.3733 103.677 35.4306 103.808 35.456C104.029 35.5498 104.272 35.5798 104.509 35.5427C107.062 34.9109 109.619 34.3264 112.179 33.7894C115.455 33.0952 117.715 33.1262 118.918 33.7867C120.121 34.4472 120.86 35.3467 121.142 36.4649C121.366 37.3598 121.232 38.3171 120.752 39.335C120.272 40.353 119.444 41.3636 118.279 42.3898C117.146 43.4331 115.653 44.3763 113.8 45.2482C112.071 46.0712 110.294 46.7892 108.48 47.3983C105.972 48.2236 103.838 48.7134 102.054 48.8344C100.27 48.9553 98.8349 48.8717 97.7427 48.5672C96.6505 48.2626 95.9773 47.8044 95.7339 47.1681ZM101.327 42.8507C101.466 43.2545 101.659 43.6371 101.901 43.9873C102.159 44.3444 102.492 44.6398 102.875 44.8527C103.377 45.1209 103.93 45.2769 104.496 45.3102C105.351 45.3636 106.209 45.3181 107.053 45.1747C108.53 44.954 109.988 44.6245 111.417 44.1888C111.929 44.0351 112.429 43.8457 112.915 43.6219C114.207 43.0322 115.049 42.5667 115.435 42.2356C115.614 42.0979 115.746 41.908 115.815 41.6917C115.883 41.4754 115.884 41.2431 115.817 41.0265C115.767 40.8313 115.665 40.6539 115.522 40.514C115.378 40.3741 115.199 40.2773 115.004 40.2343C114.526 40.114 114.029 40.0903 113.542 40.1646C112.911 40.2509 112.284 40.3696 111.665 40.52C110.962 40.6848 110.137 40.8923 109.19 41.1425C108.096 41.4054 106.701 41.7236 105.008 42.1198C103.314 42.5161 102.086 42.7617 101.319 42.8505L101.327 42.8507ZM100.56 21.7961C99.8367 22.0811 99.3817 22.787 99.1992 23.9057C99.0216 25.0831 99.1364 26.2865 99.5335 27.4079C99.6078 27.658 99.7101 27.8988 99.8384 28.1256C100.279 29.2434 101.011 30.2204 101.956 30.9538C102.368 31.2839 102.856 31.503 103.374 31.5905C103.893 31.678 104.425 31.6309 104.921 31.4538C106.856 30.8324 107.495 29.4292 106.824 27.2091C106.646 26.6203 106.415 26.0491 106.134 25.5026C105.575 24.3004 104.769 23.2321 103.768 22.3691C102.829 21.5949 101.757 21.3997 100.552 21.7959L100.56 21.7961Z" fill="#FEDF4B"/>
<path d="M135.979 32.0472C133.182 32.5642 130.726 32.6772 128.574 32.3546C126.422 32.0319 124.638 31.2975 123.214 30.1266C121.774 28.9404 120.753 27.3177 120.3 25.4993C119.976 24.2426 119.906 22.9331 120.093 21.6483C120.287 20.4188 120.753 19.2488 121.455 18.2249C122.253 17.0845 123.247 16.0977 124.39 15.3115C125.755 14.3641 127.236 13.599 128.796 13.0353C130.258 12.4762 131.768 12.0536 133.306 11.7729C135.65 11.3248 138.053 11.3007 140.405 11.7017C142.622 12.1018 144.454 13.0078 145.921 14.3955C147.388 15.7832 148.231 17.6615 148.514 20.0009C148.737 21.8168 148.356 23.6563 147.432 25.2312C146.501 26.877 145.049 28.2816 143.087 29.4782C141.126 30.6748 138.762 31.5237 135.979 32.0472ZM131.008 13.8506C129.842 14.0729 129.067 14.655 128.691 15.5846C128.315 16.5142 128.269 17.6481 128.539 18.9819C128.829 20.4066 129.444 21.9533 130.367 23.6256C131.001 24.7315 131.735 25.7758 132.56 26.7452C133.303 27.6558 134.18 28.4459 135.161 29.088C136.048 29.6452 136.879 29.8559 137.663 29.7181C138.088 29.6303 138.49 29.4531 138.844 29.198C139.296 28.8169 139.596 28.1584 139.743 27.2226C139.89 26.1598 139.868 25.0803 139.68 24.0243C139.438 22.3867 138.856 20.8192 137.972 19.4243C135.454 15.3048 133.083 13.4583 131.008 13.8547L131.008 13.8506Z" fill="#FEDF4B"/>
<path d="M151.681 11.8785C150.761 11.9743 149.843 12.0764 148.927 12.1846C148.892 11.8796 148.858 11.5767 148.821 11.2716C149.815 10.9468 150.786 10.555 151.728 10.099C152.856 9.57624 153.934 8.95057 154.949 8.22979C156.996 6.83353 158.411 5.24104 159.173 3.43748L160.82 3.32398C160.943 5.21393 161.066 7.10318 161.188 8.99174C163.748 8.82333 166.309 8.69403 168.872 8.60384C168.637 9.30068 168.405 9.9962 168.174 10.6904C165.889 10.7796 163.605 10.8982 161.32 11.0463C161.571 14.9072 161.822 18.766 162.072 22.6227C162.133 23.5683 162.39 24.2659 162.844 24.7154C163.059 24.9366 163.321 25.107 163.609 25.2144C163.897 25.3217 164.206 25.3634 164.512 25.3363C165.319 25.2626 166.092 24.9713 166.75 24.493C167.505 23.9929 168.156 23.3477 168.664 22.5943C169.139 22.9168 169.611 23.2406 170.081 23.5657C169.476 24.6475 168.66 25.5948 167.683 26.3505C166.698 27.0999 165.595 27.6766 164.421 28.0565C163.124 28.4694 161.783 28.7236 160.426 28.8136C158.215 28.9729 156.475 28.6897 155.18 27.9101C153.886 27.1305 153.16 26.0667 153.018 24.7007C152.572 20.4245 152.126 16.1505 151.681 11.8785Z" fill="#FEDF4B"/>
<path d="M192.759 18.2061C193.183 18.0691 193.617 17.9614 194.056 17.8838C194.92 17.6963 196.308 17.3862 198.263 16.9872C200.218 16.5882 201.538 16.3403 202.235 16.2131C202.328 15.294 202.421 14.3755 202.515 13.4578C202.606 12.5489 202.518 11.8851 202.245 11.464C201.973 11.043 201.444 10.7914 200.63 10.7147C199.817 10.6381 199.202 10.7999 198.704 11.1863C198.473 11.3558 198.28 11.5741 198.141 11.8261C198.001 12.0781 197.917 12.3577 197.895 12.6455C197.866 13.1725 198.004 13.6952 198.288 14.1381C195.497 14.8335 192.735 15.5761 190.001 16.3658C189.827 15.8133 189.752 15.2339 189.78 14.6547C189.847 13.3177 190.471 12.2021 191.684 11.3064C192.898 10.4108 194.508 9.79078 196.55 9.45527C198.736 9.11323 200.956 9.05268 203.157 9.27508C205.276 9.49425 206.999 9.94566 208.319 10.6045C209.638 11.2633 210.562 12.0907 211.091 13.0886C211.624 14.1144 211.81 15.2879 211.621 16.4304C211.202 19.437 210.781 22.4435 210.358 25.4501C210.173 26.7867 210.39 27.4998 211.008 27.5895C211.371 27.6424 211.981 27.5154 212.85 27.217L213.766 28.3587C213.04 28.9335 211.952 29.3857 210.504 29.7295C209.222 30.0635 207.891 30.1637 206.575 30.0254C205.815 29.9214 205.07 29.7285 204.355 29.4505C203.63 29.1843 202.955 28.7992 202.355 28.3107C201.833 27.9177 201.456 27.3598 201.285 26.7258C200.564 27.3332 199.758 27.829 198.892 28.1971C197.847 28.6789 196.341 28.8344 194.363 28.6881C189.76 28.3572 187.516 26.6613 187.646 23.3889C187.706 22.6116 187.869 21.846 188.132 21.1129C188.365 20.5174 188.847 19.958 189.584 19.441C190.32 18.9239 191.376 18.5123 192.759 18.2061ZM202.094 17.5917C202.095 17.5445 202.096 17.5198 202.061 17.517C201.718 17.5222 201.376 17.5583 201.04 17.6251C200.457 17.7434 199.895 17.9507 199.374 18.2399C198.658 18.6506 198.057 19.2379 197.628 19.9468C197.095 20.758 196.773 21.8429 196.667 23.2161C196.59 24.1829 196.762 24.8958 197.182 25.361C197.603 25.8263 198.247 26.0947 199.118 26.1767C200.135 26.27 200.852 26.0835 201.282 25.6053C201.549 22.9313 201.82 20.2601 202.094 17.5917Z" fill="#FEDF4B"/>
<path d="M212.68 30.3447L212.87 28.5867C213.17 28.7036 213.482 28.788 213.8 28.8385C214.171 28.9039 214.55 28.8887 214.915 28.7939C215.279 28.699 215.618 28.5267 215.911 28.2886C216.537 27.7959 216.964 26.8729 217.192 25.5193C217.606 23.0609 218.021 20.6086 218.437 18.1625C218.579 17.3198 218.617 16.747 218.55 16.4441C218.483 16.1411 218.246 15.8696 217.838 15.6294C216.928 15.1551 215.994 14.728 215.041 14.3495C215.1 13.9663 215.157 13.5851 215.216 13.2019C216.759 13.3226 218.17 13.3974 219.451 13.4181C220.733 13.4388 222.072 13.4278 223.473 13.3872C225.147 13.3277 226.644 13.2221 227.964 13.0702C228.326 13.2834 228.688 13.515 229.051 13.7406C228.883 14.5471 228.714 15.3543 228.543 16.1621C232.345 14.891 235.484 14.5909 237.846 15.1811C239.08 15.4792 240.225 16.0738 241.183 16.9143C242.115 17.7247 242.784 18.7988 243.103 19.9974C243.434 21.2152 243.395 22.5364 243 23.959L240.933 30.9635C240.272 33.3346 240.62 34.7029 241.951 35.0968C242.283 35.1846 242.624 35.2359 242.967 35.2496L242.453 37.0111C240.192 36.0809 237.873 35.2995 235.511 34.6719C233.197 34.0803 230.847 33.6437 228.476 33.3649C228.611 32.7695 228.744 32.1719 228.879 31.5744C229.294 31.6841 229.729 31.6932 230.148 31.601C230.556 31.4676 230.905 31.1941 231.134 30.8281C231.527 30.2291 231.834 29.5773 232.047 28.892C232.347 28.0265 232.681 26.8137 233.051 25.2534C233.516 23.2881 233.757 21.7916 233.775 20.764C233.808 19.9053 233.622 19.2004 233.218 18.6491C232.822 18.098 232.196 17.7272 231.372 17.5413C230.453 17.335 229.396 17.393 228.213 17.7218C227.538 20.952 226.859 24.1827 226.175 27.4141C226.037 28.0333 225.956 28.6641 225.932 29.2984C225.904 29.7657 226.015 30.2309 226.253 30.6332C226.38 30.8194 226.543 30.9775 226.732 31.0981C226.922 31.2187 227.134 31.2993 227.355 31.3348C227.471 31.3598 227.71 31.3895 228.077 31.4239C227.948 32.0092 227.818 32.5945 227.689 33.1819C225.264 32.3801 222.791 31.7336 220.284 31.2462C217.771 30.7849 215.231 30.4837 212.68 30.3447V30.3447Z" fill="#FEDF4B"/>
<path d="M274.095 48.9429C271.715 47.5575 269.253 46.3214 266.723 45.2419C264.207 44.1958 261.63 43.3068 259.007 42.5802L259.667 40.8136C259.885 40.9823 260.126 41.1182 260.383 41.2171C260.748 41.3644 261.14 41.4353 261.533 41.4256C261.927 41.4158 262.314 41.3255 262.673 41.1603C263.428 40.8266 264.03 40.0991 264.471 38.9714C265.388 36.6098 266.301 34.2488 267.212 31.8885C267.731 30.5671 267.771 29.6243 267.325 29.0557C266.878 28.4871 265.995 27.9484 264.676 27.4459C264.81 27.0855 264.945 26.7237 265.082 26.3606C266.58 26.8032 267.959 27.1748 269.221 27.4754C270.482 27.7759 271.809 28.0518 273.202 28.3031C274.808 28.5999 276.323 28.8242 277.75 28.9761C278.049 29.2661 278.349 29.5561 278.649 29.8481L273.052 42.597C272.602 43.6224 272.47 44.5016 272.656 45.2347C272.844 45.9685 273.581 46.6274 274.879 47.2303C274.618 47.7991 274.357 48.37 274.095 48.9429ZM269.334 20.8041C269.739 19.7497 270.614 19.0649 271.969 18.7643C273.325 18.4638 274.888 18.6734 276.644 19.4051C277.512 19.7515 278.326 20.2228 279.06 20.8044C279.649 21.265 280.147 21.8334 280.527 22.4799C280.834 22.9926 281.024 23.5674 281.083 24.1631C281.124 24.6727 281.038 25.1845 280.834 25.6525C280.363 26.7179 279.451 27.3567 278.105 27.5834C276.759 27.8102 275.28 27.5797 273.654 26.898C271.92 26.173 270.682 25.2486 269.927 24.0979C269.173 22.9472 268.961 21.8613 269.334 20.8041Z" fill="#FEDF4B"/>
<path d="M295.258 37.5237C296.102 37.9791 296.909 38.5013 297.672 39.0854C298.445 39.6786 299.021 40.1361 299.4 40.4579C300.402 38.656 300.838 37.3027 300.708 36.3981C300.58 35.4949 299.726 34.5971 298.126 33.7309C298.307 33.3962 298.486 33.0573 298.663 32.7142C299.112 32.9045 299.449 33.0534 299.673 33.1568C299.897 33.2602 300.17 33.3728 300.481 33.515C304.043 35.0159 307.699 36.2814 311.424 37.3033C311.734 37.688 312.042 38.0735 312.348 38.4595L301.077 56.988C300.612 57.7897 300.36 58.4882 300.32 59.0836C300.285 59.6873 300.622 60.2084 301.331 60.6549C301.742 60.9016 302.18 61.0985 302.637 61.2415L301.865 62.4713C298.228 60.9435 294.585 59.524 290.936 58.2126L290.126 57.1676L291.257 55.1354C290.006 55.4891 288.696 55.5827 287.407 55.4104C286.034 55.2395 284.702 54.8195 283.477 54.1705C281.62 53.2002 280.215 52.0009 279.244 50.5455C278.309 49.1946 277.751 47.614 277.63 45.9701C277.514 44.4233 277.792 42.872 278.438 41.464C279.066 40.0724 279.997 38.8422 281.163 37.8656C282.335 36.8883 283.716 36.1987 285.196 35.851C286.798 35.482 288.457 35.4364 290.076 35.7168C291.891 36.0248 293.643 36.6355 295.258 37.5237V37.5237ZM297.957 43.0573C297.85 42.3488 297.591 41.6725 297.198 41.0759C296.769 40.4166 296.181 39.879 295.488 39.5145C294.46 38.9564 293.495 38.7881 292.606 39.008C291.66 39.2629 290.812 39.8014 290.175 40.5524C289.335 41.5281 288.624 42.6092 288.059 43.7688C287.582 44.7269 287.163 45.713 286.803 46.7216C286.275 48.1743 286.205 49.462 286.593 50.5844C286.936 51.6569 287.679 52.5528 288.665 53.0826C289.333 53.4492 290.072 53.6653 290.83 53.716C291.606 53.7734 292.022 53.7554 292.077 53.6538L297.957 43.0573Z" fill="#FEDF4B"/>
<path d="M324.358 55.897C326.909 57.7658 328.516 59.7012 329.181 61.619C329.846 63.5367 329.947 65.2165 329.507 66.6403C329.133 67.9321 328.523 69.1423 327.708 70.2087C323.71 66.9834 319.635 63.9053 315.481 60.9741C315.067 61.7331 314.692 62.513 314.358 63.3108C314.118 63.9077 313.924 64.5222 313.777 65.149C313.596 65.9705 313.573 66.8194 313.709 67.6497C313.848 68.4362 314.144 69.186 314.58 69.8534C315.023 70.5445 315.587 71.1491 316.244 71.6379C317.328 72.4567 318.599 72.9867 319.94 73.1792C321.328 73.3754 322.74 73.3418 324.118 73.0797C324.258 73.6994 324.394 74.3046 324.528 74.916C323.099 75.1216 321.655 75.1994 320.212 75.1483C318.803 75.0735 317.415 74.7731 316.099 74.2582C314.684 73.7249 313.157 72.852 311.503 71.6536C310.135 70.6651 308.912 69.4856 307.873 68.1503C306.951 66.9734 306.235 65.6464 305.756 64.2264C305.325 62.9571 305.169 61.6089 305.301 60.2735C305.436 58.973 305.875 57.7232 306.582 56.6264C307.703 54.855 309.155 53.5799 310.958 52.8262C312.761 52.0724 314.829 51.9328 317.146 52.4316C319.463 52.9304 321.879 54.0789 324.358 55.897ZM316.347 59.7258C318.05 60.9293 319.742 62.1572 321.422 63.4095L322.109 62.252L322.785 61.1087C323.78 59.0387 323.609 57.5034 322.27 56.5296C321.077 55.8508 319.676 56.2696 318.088 57.7824C317.927 57.9374 317.66 58.2299 317.282 58.6619C316.904 59.094 316.591 59.4472 316.347 59.7258Z" fill="#FEDF4B"/>
<path d="M333.725 75.8386C334.164 76.0044 334.592 76.1974 335.007 76.4165C335.846 76.8227 337.208 77.4762 339.084 78.4181C340.96 79.36 342.232 80.0281 342.895 80.3812C343.517 79.7089 344.142 79.0319 344.772 78.3502C345.385 77.6805 345.706 77.0889 345.725 76.5733C345.744 76.0576 345.439 75.5044 344.805 74.9216C344.171 74.3388 343.547 74.0585 342.904 74.0491C342.614 74.0329 342.325 74.0826 342.057 74.1944C341.789 74.3062 341.549 74.4773 341.355 74.6951C341.017 75.1053 340.823 75.6165 340.803 76.1494C338.04 74.8963 335.274 73.7103 332.505 72.5914C332.685 72.0398 332.966 71.527 333.333 71.0791C334.182 70.0484 335.371 69.549 336.911 69.606C338.45 69.6629 340.184 70.205 342.104 71.2568C344.157 72.4033 346.064 73.7963 347.785 75.4055C349.444 76.9637 350.634 78.4587 351.361 79.8555C352.088 81.2523 352.375 82.5351 352.236 83.6835C352.088 84.8436 351.547 85.9165 350.705 86.721L344.283 93.1387C343.333 94.0919 343.095 94.8093 343.567 95.2907C343.843 95.574 344.435 95.8784 345.348 96.2141C345.384 96.7247 345.419 97.234 345.45 97.7418C344.495 97.7217 343.304 97.3616 341.873 96.6779C340.583 96.094 339.4 95.2964 338.372 94.3183C337.793 93.7398 337.278 93.0996 336.836 92.409C336.387 91.7247 336.047 90.974 335.827 90.1839C335.622 89.5409 335.636 88.8469 335.868 88.2131C335.109 88.2568 334.146 88.1276 332.978 87.8338C331.81 87.54 330.448 86.6891 328.867 85.2929C325.187 82.0557 324.306 79.2679 326.358 76.7246C326.869 76.1422 327.458 75.6354 328.108 75.2193C328.657 74.8895 329.392 74.7486 330.318 74.8051C331.244 74.8615 332.381 75.1957 333.725 75.8386ZM341.965 81.3959C341.996 81.3636 342.001 81.3349 341.979 81.316C341.688 81.096 341.379 80.9017 341.055 80.7354C340.497 80.4525 339.9 80.2543 339.284 80.1472C338.45 80.0094 337.594 80.0906 336.799 80.383C335.873 80.6843 334.96 81.3539 334.056 82.3814C333.418 83.1055 333.139 83.7911 333.22 84.4384C333.301 85.0836 333.683 85.7186 334.371 86.3499C335.171 87.0841 335.887 87.4096 336.536 87.2999L341.965 81.3959Z" fill="#FEDF4B"/>
</g>
<defs>
<clipPath id="clip0_81_2">
<rect width="261" height="385" fill="white" transform="translate(2.9248 69.6777)"/>
</clipPath>
<clipPath id="clip1_81_2">
<rect width="352" height="92" fill="white" transform="translate(1.92773) rotate(1.20066)"/>
</clipPath>
</defs>
</svg>
